<?xml version="1.0" encoding="utf-8"?>
<!-- Generator: Adobe Illustrator 24.1.1, SVG Export Plug-In . SVG Version: 6.00 Build 0)  -->
<svg version="1.1" id="Layer_1" xmlns="http://www.w3.org/2000/svg" xmlns:xlink="http://www.w3.org/1999/xlink" x="0px" y="0px"
	 viewBox="0 0 512 512" style="enable-background:new 0 0 512 512;" xml:space="preserve">
<style type="text/css">
	.st0{fill:#A1070C;}
	.st1{fill:url(#SVGID_1_);}
</style>
<g>
	<path class="st0" d="M53.5,372.9L256,489.9l202.5-116.9V139.1L256,22.1L53.5,139.1V372.9z M256,512L34.3,384V128L256,0l221.7,128
		v256L256,512z"/>
	
		<linearGradient id="SVGID_1_" gradientUnits="userSpaceOnUse" x1="9.309077e-02" y1="510.0305" x2="1.8252" y2="510.0305" gradientTransform="matrix(7.943423e-15 149.7943 -129.726 9.172255e-15 66420.1875 219.4477)">
		<stop  offset="0" style="stop-color:#F7F6F3"/>
		<stop  offset="1" style="stop-color:#FEF6D5"/>
	</linearGradient>
	<polyline class="st1" points="50.9,137.6 256,19.2 461.1,137.6 461.1,374.4 256,492.9 50.9,374.4 50.9,137.6 	"/>
	<path class="st0" d="M350.1,169.3c0,9.3-1.8,18.5-5.5,27.7c-3.7,9.2-8.6,17.7-14.8,25.5c-6.2,7.8-13.3,14.7-21.4,20.6
		c-8.1,5.9-16.5,10.1-25.2,12.7l-3.9-6.4c5.1-2.6,9.9-5.9,14.1-9.9c4.3-4,8-8.6,11-13.7c3.1-5.1,5.4-10.5,7.1-16.2
		c1.7-5.7,2.5-11.5,2.5-17.4c0-6.7-1-13.1-2.9-19.1c-2-6-4.8-11.2-8.6-15.7c-3.8-4.5-8.5-8-14-10.6s-12-3.9-19.2-3.9
		c-8.8,0-16.9,1.7-24.2,5.1c-7.3,3.4-14,8-19.8,13.9c-5.9,5.8-11,12.5-15.3,20c-4.3,7.5-8,15.4-10.8,23.7c-2.9,8.3-5,16.6-6.5,25.1
		c-1.5,8.4-2.2,16.4-2.2,23.9c0,7.6,0.8,15.4,2.4,23.5c1.6,8.1,3.9,16,7,23.9c3.1,7.8,6.9,15.2,11.4,22.2c4.5,7,9.8,13.1,15.7,18.4
		c5.9,5.3,12.5,9.5,19.8,12.6c7.3,3.1,15.2,4.7,23.8,4.7c5.9,0,11.6-0.8,17.2-2.4s10.9-3.7,16.1-6.4c5.1-2.7,10-5.9,14.6-9.5
		c4.6-3.7,8.8-7.7,12.8-11.9l6.1,5.9c-5.4,7.1-11.8,13.9-19.2,20.5c-7.4,6.5-15.4,12.4-24,17.4c-8.6,5.1-17.5,9.1-26.9,12.1
		s-18.6,4.5-27.8,4.5c-8.9,0-17.4-1.6-25.2-4.7c-7.9-3.1-15.1-7.3-21.8-12.7c-6.6-5.3-12.5-11.6-17.7-18.7
		c-5.2-7.2-9.6-14.8-13.2-22.9c-3.6-8.1-6.4-16.4-8.3-25c-1.9-8.6-2.8-17-2.8-25.2c0-11.9,2-24.1,6-36.6c4-12.5,9.5-24.7,16.4-36.5
		c7-11.8,15.2-23,24.7-33.5c9.5-10.5,19.7-19.7,30.7-27.5c11-7.8,22.4-14,34.3-18.6c11.9-4.6,23.8-6.9,35.7-6.9
		c7.3,0,14.2,1.1,20.6,3.2c6.4,2.1,11.9,5.2,16.5,9.3c4.7,4,8.3,9.1,11,15.1C348.8,154.8,350.1,161.6,350.1,169.3z"/>
</g>
</svg>
