<?xml version="1.0" encoding="utf-8"?>
<!-- Generator: Adobe Illustrator 24.1.1, SVG Export Plug-In . SVG Version: 6.00 Build 0)  -->
<svg version="1.1" id="Layer_1" xmlns="http://www.w3.org/2000/svg" xmlns:xlink="http://www.w3.org/1999/xlink" x="0px" y="0px"
	 viewBox="0 0 512 512" style="enable-background:new 0 0 512 512;" xml:space="preserve">
<g>
	<path d="M352,384.9l-15.1-15.1L256,450.7l-87.2-87.2H42.7v-320h426.7l0,320l-126.2,0l-6.2,6.2L352,384.9v21.3h160V0.9H0v405.3
		h151.2L256,511.1L367.1,400L352,384.9v21.3V384.9z M128,214.2v21.3h21.3h21.3v-64h-64v64H128V214.2h21.3v-21.3H128V214.2h21.3H128z
		 M245.3,214.2v21.3h21.3H288v-64h-64v64h21.3V214.2h21.3v-21.3h-21.3V214.2h21.3H245.3z M362.7,214.2v21.3H384h21.3v-64h-64v64
		h21.3V214.2H384v-21.3h-21.3V214.2H384H362.7z"/>
</g>
</svg>
